<mxfile host="app.diagrams.net" modified="2023-05-04T13:09:29.415Z" agent="Mozilla/5.0 (Windows NT 10.0; Win64; x64) AppleWebKit/537.36 (KHTML, like Gecko) Chrome/112.0.0.0 Safari/537.36" version="21.2.7" etag="5trYGvpZrgXTxUDwb9ec" type="github">
  <diagram name="PÃ¡gina-1" id="5f6U3t4sqEwisHyEzPyM">
    <mxGraphModel>
      <root>
        <mxCell id="0" />
        <mxCell id="1" parent="0" />
      </root>
    </mxGraphModel>
  </diagram>
</mxfile>
